<svg preserveAspectRatio="none" overflow="visible" style="display: block;" width="25" height="26.25" viewBox="0 0 25 26.25" fill="none" xmlns="http://www.w3.org/2000/svg">
<g id="Container">
<path id="Icon" d="M2.03125 16.2812L0 14.8125L6.25 4.8125L10 9.1875L15 1.0625L18.75 6.6875L22.9688 0L25 1.46875L18.8125 11.2812L15.0938 5.6875L10.3438 13.4062L6.5625 9L2.03125 16.2812V16.2812M16.875 21.25C17.75 21.25 18.4896 20.9479 19.0938 20.3438C19.6979 19.7396 20 19 20 18.125C20 17.25 19.6979 16.5104 19.0938 15.9062C18.4896 15.3021 17.75 15 16.875 15C16 15 15.2604 15.3021 14.6562 15.9062C14.0521 16.5104 13.75 17.25 13.75 18.125C13.75 19 14.0521 19.7396 14.6562 20.3438C15.2604 20.9479 16 21.25 16.875 21.25V21.25M23.25 26.25L19.875 22.875C19.4375 23.1667 18.9635 23.3854 18.4531 23.5312C17.9427 23.6771 17.4167 23.75 16.875 23.75C15.3125 23.75 13.9844 23.2031 12.8906 22.1094C11.7969 21.0156 11.25 19.6875 11.25 18.125C11.25 16.5625 11.7969 15.2344 12.8906 14.1406C13.9844 13.0469 15.3125 12.5 16.875 12.5C18.4375 12.5 19.7656 13.0469 20.8594 14.1406C21.9531 15.2344 22.5 16.5625 22.5 18.125C22.5 18.6667 22.4271 19.1927 22.2812 19.7031C22.1354 20.2135 21.9167 20.6875 21.625 21.125L25 24.5L23.25 26.25V26.25" fill="#161C27"/>
</g>
</svg>
